<?xml version="1.0" encoding="utf-8"?>
<!-- Generator: Adobe Illustrator 24.0.2, SVG Export Plug-In . SVG Version: 6.00 Build 0)  -->
<svg version="1.1" id="Layer_1" xmlns="http://www.w3.org/2000/svg" xmlns:xlink="http://www.w3.org/1999/xlink" x="0px" y="0px"
	 viewBox="0 0 65 65" style="enable-background:new 0 0 65 65;" xml:space="preserve">
<style type="text/css">
	.st0{fill:#114FAC;}
</style>
<path class="st0" d="M36.4,47c-0.1-0.5-0.3-0.8-0.6-1c-0.4-0.3-0.8-0.4-1.4-0.4c-0.5,0-0.9,0.2-1.3,0.4c-0.4,0.3-0.6,0.6-0.7,1
	c0,0,0,0.1,0,0.1h4C36.4,47.1,36.4,47.1,36.4,47z M36.4,47c-0.1-0.5-0.3-0.8-0.6-1c-0.4-0.3-0.8-0.4-1.4-0.4c-0.5,0-0.9,0.2-1.3,0.4
	c-0.4,0.3-0.6,0.6-0.7,1c0,0,0,0.1,0,0.1h4C36.4,47.1,36.4,47.1,36.4,47z M36.4,47c-0.1-0.5-0.3-0.8-0.6-1c-0.4-0.3-0.8-0.4-1.4-0.4
	c-0.5,0-0.9,0.2-1.3,0.4c-0.4,0.3-0.6,0.6-0.7,1c0,0,0,0.1,0,0.1h4C36.4,47.1,36.4,47.1,36.4,47z M36.4,47c-0.1-0.5-0.3-0.8-0.6-1
	c-0.4-0.3-0.8-0.4-1.4-0.4c-0.5,0-0.9,0.2-1.3,0.4c-0.4,0.3-0.6,0.6-0.7,1c0,0,0,0.1,0,0.1h4C36.4,47.1,36.4,47.1,36.4,47z M36.4,47
	c-0.1-0.5-0.3-0.8-0.6-1c-0.4-0.3-0.8-0.4-1.4-0.4c-0.5,0-0.9,0.2-1.3,0.4c-0.4,0.3-0.6,0.6-0.7,1c0,0,0,0.1,0,0.1h4
	C36.4,47.1,36.4,47.1,36.4,47z M36.4,47c-0.1-0.5-0.3-0.8-0.6-1c-0.4-0.3-0.8-0.4-1.4-0.4c-0.5,0-0.9,0.2-1.3,0.4
	c-0.4,0.3-0.6,0.6-0.7,1c0,0,0,0.1,0,0.1h4C36.4,47.1,36.4,47.1,36.4,47z M36.4,47c-0.1-0.5-0.3-0.8-0.6-1c-0.4-0.3-0.8-0.4-1.4-0.4
	c-0.5,0-0.9,0.2-1.3,0.4c-0.4,0.3-0.6,0.6-0.7,1c0,0,0,0.1,0,0.1h4C36.4,47.1,36.4,47.1,36.4,47z M36.4,47c-0.1-0.5-0.3-0.8-0.6-1
	c-0.4-0.3-0.8-0.4-1.4-0.4c-0.5,0-0.9,0.2-1.3,0.4c-0.4,0.3-0.6,0.6-0.7,1c0,0,0,0.1,0,0.1h4C36.4,47.1,36.4,47.1,36.4,47z M36.4,47
	c-0.1-0.5-0.3-0.8-0.6-1c-0.4-0.3-0.8-0.4-1.4-0.4c-0.5,0-0.9,0.2-1.3,0.4c-0.4,0.3-0.6,0.6-0.7,1c0,0,0,0.1,0,0.1h4
	C36.4,47.1,36.4,47.1,36.4,47z M36.4,47c-0.1-0.5-0.3-0.8-0.6-1c-0.4-0.3-0.8-0.4-1.4-0.4c-0.5,0-0.9,0.2-1.3,0.4
	c-0.4,0.3-0.6,0.6-0.7,1c0,0,0,0.1,0,0.1h4C36.4,47.1,36.4,47.1,36.4,47z M36.4,47c-0.1-0.5-0.3-0.8-0.6-1c-0.4-0.3-0.8-0.4-1.4-0.4
	c-0.5,0-0.9,0.2-1.3,0.4c-0.4,0.3-0.6,0.6-0.7,1c0,0,0,0.1,0,0.1h4C36.4,47.1,36.4,47.1,36.4,47z M36.4,47c-0.1-0.5-0.3-0.8-0.6-1
	c-0.4-0.3-0.8-0.4-1.4-0.4c-0.5,0-0.9,0.2-1.3,0.4c-0.4,0.3-0.6,0.6-0.7,1c0,0,0,0.1,0,0.1h4C36.4,47.1,36.4,47.1,36.4,47z M36.4,47
	c-0.1-0.5-0.3-0.8-0.6-1c-0.4-0.3-0.8-0.4-1.4-0.4c-0.5,0-0.9,0.2-1.3,0.4c-0.4,0.3-0.6,0.6-0.7,1c0,0,0,0.1,0,0.1h4
	C36.4,47.1,36.4,47.1,36.4,47z M36.4,47c-0.1-0.5-0.3-0.8-0.6-1c-0.4-0.3-0.8-0.4-1.4-0.4c-0.5,0-0.9,0.2-1.3,0.4
	c-0.4,0.3-0.6,0.6-0.7,1c0,0,0,0.1,0,0.1h4C36.4,47.1,36.4,47.1,36.4,47z M36.4,47c-0.1-0.5-0.3-0.8-0.6-1c-0.4-0.3-0.8-0.4-1.4-0.4
	c-0.5,0-0.9,0.2-1.3,0.4c-0.4,0.3-0.6,0.6-0.7,1c0,0,0,0.1,0,0.1h4C36.4,47.1,36.4,47.1,36.4,47z M36.4,47c-0.1-0.5-0.3-0.8-0.6-1
	c-0.4-0.3-0.8-0.4-1.4-0.4c-0.5,0-0.9,0.2-1.3,0.4c-0.4,0.3-0.6,0.6-0.7,1c0,0,0,0.1,0,0.1h4C36.4,47.1,36.4,47.1,36.4,47z M36.4,47
	c-0.1-0.5-0.3-0.8-0.6-1c-0.4-0.3-0.8-0.4-1.4-0.4c-0.5,0-0.9,0.2-1.3,0.4c-0.4,0.3-0.6,0.6-0.7,1c0,0,0,0.1,0,0.1h4
	C36.4,47.1,36.4,47.1,36.4,47z M36.4,47c-0.1-0.5-0.3-0.8-0.6-1c-0.4-0.3-0.8-0.4-1.4-0.4c-0.5,0-0.9,0.2-1.3,0.4
	c-0.4,0.3-0.6,0.6-0.7,1c0,0,0,0.1,0,0.1h4C36.4,47.1,36.4,47.1,36.4,47z M36.4,47c-0.1-0.5-0.3-0.8-0.6-1c-0.4-0.3-0.8-0.4-1.4-0.4
	c-0.5,0-0.9,0.2-1.3,0.4c-0.4,0.3-0.6,0.6-0.7,1c0,0,0,0.1,0,0.1h4C36.4,47.1,36.4,47.1,36.4,47z M36.4,47c-0.1-0.5-0.3-0.8-0.6-1
	c-0.4-0.3-0.8-0.4-1.4-0.4c-0.5,0-0.9,0.2-1.3,0.4c-0.4,0.3-0.6,0.6-0.7,1c0,0,0,0.1,0,0.1h4C36.4,47.1,36.4,47.1,36.4,47z M36.4,47
	c-0.1-0.5-0.3-0.8-0.6-1c-0.4-0.3-0.8-0.4-1.4-0.4c-0.5,0-0.9,0.2-1.3,0.4c-0.4,0.3-0.6,0.6-0.7,1c0,0,0,0.1,0,0.1h4
	C36.4,47.1,36.4,47.1,36.4,47z M36.4,47c-0.1-0.5-0.3-0.8-0.6-1c-0.4-0.3-0.8-0.4-1.4-0.4c-0.5,0-0.9,0.2-1.3,0.4
	c-0.4,0.3-0.6,0.6-0.7,1c0,0,0,0.1,0,0.1h4C36.4,47.1,36.4,47.1,36.4,47z M35.8,45.9c-0.4-0.2-0.8-0.4-1.4-0.4
	c-0.5,0-0.9,0.2-1.3,0.4c-0.4,0.3-0.6,0.6-0.7,1.1h4C36.3,46.5,36.1,46.2,35.8,45.9z M36.5,47c-0.1-0.5-0.3-0.8-0.6-1.1
	c-0.4-0.2-0.8-0.4-1.4-0.4c-0.5,0-0.9,0.2-1.3,0.4c-0.4,0.3-0.6,0.6-0.7,1.1h0c0,0,0,0.1,0,0.1h4C36.4,47.1,36.4,47.1,36.5,47
	L36.5,47z M36.5,47c-0.1-0.5-0.3-0.8-0.6-1.1c-0.4-0.2-0.8-0.4-1.4-0.4c-0.5,0-0.9,0.2-1.3,0.4c-0.4,0.3-0.6,0.6-0.7,1.1h0
	c0,0,0,0.1,0,0.1h4C36.4,47.1,36.4,47.1,36.5,47L36.5,47z M36.4,47c-0.1-0.5-0.3-0.8-0.6-1c-0.4-0.3-0.8-0.4-1.4-0.4
	c-0.5,0-0.9,0.2-1.3,0.4c-0.4,0.3-0.6,0.6-0.7,1c0,0,0,0.1,0,0.1h4C36.4,47.1,36.4,47.1,36.4,47z M36.4,47c-0.1-0.5-0.3-0.8-0.6-1
	c-0.4-0.3-0.8-0.4-1.4-0.4c-0.5,0-0.9,0.2-1.3,0.4c-0.4,0.3-0.6,0.6-0.7,1c0,0,0,0.1,0,0.1h4C36.4,47.1,36.4,47.1,36.4,47z M36.4,47
	c-0.1-0.5-0.3-0.8-0.6-1c-0.4-0.3-0.8-0.4-1.4-0.4c-0.5,0-0.9,0.2-1.3,0.4c-0.4,0.3-0.6,0.6-0.7,1c0,0,0,0.1,0,0.1h4
	C36.4,47.1,36.4,47.1,36.4,47z M36.4,47c-0.1-0.5-0.3-0.8-0.6-1c-0.4-0.3-0.8-0.4-1.4-0.4c-0.5,0-0.9,0.2-1.3,0.4
	c-0.4,0.3-0.6,0.6-0.7,1c0,0,0,0.1,0,0.1h4C36.4,47.1,36.4,47.1,36.4,47z M36.4,47c-0.1-0.5-0.3-0.8-0.6-1c-0.4-0.3-0.8-0.4-1.4-0.4
	c-0.5,0-0.9,0.2-1.3,0.4c-0.4,0.3-0.6,0.6-0.7,1c0,0,0,0.1,0,0.1h4C36.4,47.1,36.4,47.1,36.4,47z M36.4,47c-0.1-0.5-0.3-0.8-0.6-1
	c-0.4-0.3-0.8-0.4-1.4-0.4c-0.5,0-0.9,0.2-1.3,0.4c-0.4,0.3-0.6,0.6-0.7,1c0,0,0,0.1,0,0.1h4C36.4,47.1,36.4,47.1,36.4,47z M36.4,47
	c-0.1-0.5-0.3-0.8-0.6-1c-0.4-0.3-0.8-0.4-1.4-0.4c-0.5,0-0.9,0.2-1.3,0.4c-0.4,0.3-0.6,0.6-0.7,1c0,0,0,0.1,0,0.1h4
	C36.4,47.1,36.4,47.1,36.4,47z M36.4,47c-0.1-0.5-0.3-0.8-0.6-1c-0.4-0.3-0.8-0.4-1.4-0.4c-0.5,0-0.9,0.2-1.3,0.4
	c-0.4,0.3-0.6,0.6-0.7,1c0,0,0,0.1,0,0.1h4C36.4,47.1,36.4,47.1,36.4,47z M36.4,47c-0.1-0.5-0.3-0.8-0.6-1c-0.4-0.3-0.8-0.4-1.4-0.4
	c-0.5,0-0.9,0.2-1.3,0.4c-0.4,0.3-0.6,0.6-0.7,1c0,0,0,0.1,0,0.1h4C36.4,47.1,36.4,47.1,36.4,47z M36.4,47c-0.1-0.5-0.3-0.8-0.6-1
	c-0.4-0.3-0.8-0.4-1.4-0.4c-0.5,0-0.9,0.2-1.3,0.4c-0.4,0.3-0.6,0.6-0.7,1c0,0,0,0.1,0,0.1h4C36.4,47.1,36.4,47.1,36.4,47z M36.4,47
	c-0.1-0.5-0.3-0.8-0.6-1c-0.4-0.3-0.8-0.4-1.4-0.4c-0.5,0-0.9,0.2-1.3,0.4c-0.4,0.3-0.6,0.6-0.7,1c0,0,0,0.1,0,0.1h4
	C36.4,47.1,36.4,47.1,36.4,47z M36.4,47c-0.1-0.5-0.3-0.8-0.6-1c-0.4-0.3-0.8-0.4-1.4-0.4c-0.5,0-0.9,0.2-1.3,0.4
	c-0.4,0.3-0.6,0.6-0.7,1c0,0,0,0.1,0,0.1h4C36.4,47.1,36.4,47.1,36.4,47z M36.4,47c-0.1-0.5-0.3-0.8-0.6-1c-0.4-0.3-0.8-0.4-1.4-0.4
	c-0.5,0-0.9,0.2-1.3,0.4c-0.4,0.3-0.6,0.6-0.7,1c0,0,0,0.1,0,0.1h4C36.4,47.1,36.4,47.1,36.4,47z M36.4,47c-0.1-0.5-0.3-0.8-0.6-1
	c-0.4-0.3-0.8-0.4-1.4-0.4c-0.5,0-0.9,0.2-1.3,0.4c-0.4,0.3-0.6,0.6-0.7,1c0,0,0,0.1,0,0.1h4C36.4,47.1,36.4,47.1,36.4,47z M36.4,47
	c-0.1-0.5-0.3-0.8-0.6-1c-0.4-0.3-0.8-0.4-1.4-0.4c-0.5,0-0.9,0.2-1.3,0.4c-0.4,0.3-0.6,0.6-0.7,1c0,0,0,0.1,0,0.1h4
	C36.4,47.1,36.4,47.1,36.4,47z M36.4,47c-0.1-0.5-0.3-0.8-0.6-1c-0.4-0.3-0.8-0.4-1.4-0.4c-0.5,0-0.9,0.2-1.3,0.4
	c-0.4,0.3-0.6,0.6-0.7,1c0,0,0,0.1,0,0.1h4C36.4,47.1,36.4,47.1,36.4,47z M36.4,47c-0.1-0.5-0.3-0.8-0.6-1c-0.4-0.3-0.8-0.4-1.4-0.4
	c-0.5,0-0.9,0.2-1.3,0.4c-0.4,0.3-0.6,0.6-0.7,1c0,0,0,0.1,0,0.1h4C36.4,47.1,36.4,47.1,36.4,47z M36.4,47c-0.1-0.5-0.3-0.8-0.6-1
	c-0.4-0.3-0.8-0.4-1.4-0.4c-0.5,0-0.9,0.2-1.3,0.4c-0.4,0.3-0.6,0.6-0.7,1c0,0,0,0.1,0,0.1h4C36.4,47.1,36.4,47.1,36.4,47z M36.4,47
	c-0.1-0.5-0.3-0.8-0.6-1c-0.4-0.3-0.8-0.4-1.4-0.4c-0.5,0-0.9,0.2-1.3,0.4c-0.4,0.3-0.6,0.6-0.7,1c0,0,0,0.1,0,0.1h4
	C36.4,47.1,36.4,47.1,36.4,47z M36.4,47c-0.1-0.5-0.3-0.8-0.6-1c-0.4-0.3-0.8-0.4-1.4-0.4c-0.5,0-0.9,0.2-1.3,0.4
	c-0.4,0.3-0.6,0.6-0.7,1c0,0,0,0.1,0,0.1h4C36.4,47.1,36.4,47.1,36.4,47z M36.4,47c-0.1-0.5-0.3-0.8-0.6-1c-0.4-0.3-0.8-0.4-1.4-0.4
	c-0.5,0-0.9,0.2-1.3,0.4c-0.4,0.3-0.6,0.6-0.7,1c0,0,0,0.1,0,0.1h4C36.4,47.1,36.4,47.1,36.4,47z M36.4,47c-0.1-0.5-0.3-0.8-0.6-1
	c-0.4-0.3-0.8-0.4-1.4-0.4c-0.5,0-0.9,0.2-1.3,0.4c-0.4,0.3-0.6,0.6-0.7,1c0,0,0,0.1,0,0.1h4C36.4,47.1,36.4,47.1,36.4,47z"/>
<path class="st0" d="M32.5,0C14.5,0,0,14.5,0,32.5S14.5,65,32.5,65C50.4,65,65,50.5,65,32.5S50.4,0,32.5,0z M25.4,17.8
	c-0.6-0.5-1.4-0.8-2.4-0.8c-2.1,0-3.3,1-3.8,3H15c0.4-2.1,1.3-3.7,2.7-4.9c1.4-1.2,3.1-1.8,5.2-1.8c2.3,0,4.1,0.6,5.5,1.8
	c1.4,1.2,2.1,2.8,2.1,4.9c0,2.2-1,4.2-3.1,6L21.5,31h9.3v3.7H15.7V31l8.4-7.3c1.4-1.2,2.2-2.5,2.2-3.7C26.3,19,26,18.3,25.4,17.8z
	 M27.8,52.2h-2.2v-9.7h-4V46c0,0.7,0,1.2-0.1,1.8c0,0.5-0.1,1-0.3,1.6c-0.2,0.6-0.4,1-0.6,1.5c-0.3,0.4-0.6,0.7-1.1,0.9
	c-0.5,0.2-1,0.4-1.7,0.4h-1V50h0.6c0.4,0,0.7-0.1,1-0.3c0.2-0.2,0.4-0.5,0.5-0.9c0.1-0.4,0.2-0.8,0.2-1.1v-7h8.6V52.2z M38.7,48.8
	h-6.4c0.1,0.5,0.4,0.8,0.8,1.1c0.4,0.3,0.8,0.4,1.5,0.4c0.7,0,1.3-0.2,1.8-0.7h2.4c-0.3,0.8-0.8,1.6-1.6,2c-0.7,0.5-1.5,0.7-2.5,0.7
	c-1.2,0-2.4-0.4-3.2-1.2c-0.8-0.8-1.2-1.9-1.2-3.1c0-1.2,0.4-2.3,1.2-3.1c0.8-0.8,1.9-1.2,3.1-1.2c1.2,0,2.3,0.4,3.1,1.2
	c0.8,0.8,1.2,1.9,1.2,3.1C38.7,48.4,38.7,48.6,38.7,48.8z M48.1,45.8H45v6.3h-2.2v-6.3h-3.1v-2h8.4V45.8z M47.6,33
	c-1.5,1.4-3.4,2.1-5.8,2.1c-2.1,0-3.9-0.5-5.3-1.6c-1.4-1.1-2.3-2.6-2.7-4.4h4.2c0.6,1.6,1.9,2.3,3.8,2.3c1.2,0,2.1-0.3,2.8-1
	c0.7-0.7,1.1-1.5,1.1-2.6c0-1-0.4-1.9-1.1-2.5c-0.7-0.7-1.7-1-2.8-1c-1.5,0-2.7,0.5-3.6,1.4h-3.7l1.2-12.1h13.4v3.7H39l-0.3,3.8
	c0.9-0.4,2.1-0.6,3.4-0.6c2.1,0,3.9,0.6,5.4,1.9c1.5,1.3,2.3,3.1,2.3,5.3C49.8,29.9,49,31.6,47.6,33z"/>
</svg>
